#N canvas 0 36 988 977 12;
#N canvas 0 50 450 250 (subpatch) 0;
#X text 0 0 plugdatainfo <?xml version="1.0" encoding="UTF-8"?> <plugdatainfo/>;
#X coords 0 1 100 -1 1 1 1;
#X restore 0 0 graph;
#X obj 156 75 tgl 25 0 empty empty empty 17 7 0 10 #e4e4e4 #5a5a5a #5a5a5a 0 1;
#X msg 156 324 close, f 8;
#X obj 184 367 file handle;
#X obj 156 203 file glob;
#X obj 156 230 t b b a;
#X msg 185 264 open \$1, f 9;
#X obj 156 113 metro 33;
#X msg 170 291 100, f 6;
#X obj 184 396 fudiparse;
#X msg 156 155 symbol /dev/serial/by-id/*M5stack*;
#X obj 184 429 route /tof/scaled;
#X floatatom 139 475 5 0 0 0 - - - 0;
#X obj 232 462 route 255;
#X obj 355 536 line;
#X floatatom 354 569 9 0 0 0 - - - 0;
#X obj 234 494 del 100;
#X msg 234 519 255;
#X obj 583 17 vsl 20 800 0 255 0 0 empty empty empty 0 -9 0 12 #fcfcfc #000000 #000000 0 1;
#X msg 355 507 \$1 33;
#X connect 1 0 7 0;
#X connect 2 0 3 0;
#X connect 3 0 9 0;
#X connect 4 0 5 0;
#X connect 5 0 2 0;
#X connect 5 1 8 0;
#X connect 5 2 6 0;
#X connect 6 0 3 0;
#X connect 7 0 10 0;
#X connect 8 0 3 0;
#X connect 9 0 11 0;
#X connect 10 0 4 0;
#X connect 11 0 12 0;
#X connect 11 0 13 0;
#X connect 13 0 16 0;
#X connect 13 1 19 0;
#X connect 14 0 15 0;
#X connect 15 0 18 0;
#X connect 16 0 17 0;
#X connect 17 0 19 0;
#X connect 19 0 14 0;
