#N canvas 99 324 450 356 12;
#X obj 48 105 route /tof/scaled;
#X msg 112 42 reset;
#X msg 49 41 close;
#X obj 48 79 serial_comport /dev/serial/by-id/*M5stack*;
#X obj 48 134 smoother 33, f 13;
#X obj 47 261 netsend -u -b;
#X msg 71 231 connect localhost 7700;
#X obj 48 197 oscformat /test;
#X obj 48 158 expr 1-($f1/255);
#X obj 17 90 vsl 20 170 0 1 0 0 empty empty empty 0 -9 0 12 #fcfcfc #000000 #000000 0 1;
#X connect 0 0 4 0;
#X connect 1 0 3 0;
#X connect 2 0 3 0;
#X connect 3 0 0 0;
#X connect 4 0 8 0;
#X connect 6 0 5 0;
#X connect 7 0 5 0;
#X connect 8 0 7 0;
#X connect 8 0 9 0;
