#N canvas 1023 337 450 356 12;
#X obj 48 105 route /tof/scaled;
#X msg 58 53 reset;
#X msg 48 29 close;
#X obj 48 79 serial_comport /dev/serial/by-id/*M5stack*;
#X obj 48 134 smoother 33, f 13;
#X obj 88 268 netsend -u -b;
#X msg 112 238 connect localhost 7700;
#X obj 88 213 oscformat /test;
#X obj 48 158 expr 1-($f1/255);
#X obj 17 90 vsl 20 170 0 1 0 0 empty empty empty 0 -9 0 12 #fcfcfc #000000 #000000 0 1;
#X obj 19 62 bng 20 250 50 0 empty empty empty 0 -10 0 12 #fcfcfc #000000 #000000;
#X obj 48 211 != 0;
#X obj 48 183 t a a;
#X obj 16 274 tgl 20 0 empty empty empty 0 -10 0 12 #fcfcfc #000000 #000000 0 1;
#X connect 0 0 4 0;
#X connect 1 0 3 0;
#X connect 2 0 3 0;
#X connect 3 0 0 0;
#X connect 3 0 10 0;
#X connect 4 0 8 0;
#X connect 6 0 5 0;
#X connect 7 0 5 0;
#X connect 8 0 9 0;
#X connect 8 0 12 0;
#X connect 11 0 13 0;
#X connect 12 0 11 0;
#X connect 12 1 7 0;
