#N canvas 851 259 879 712 12;
#X obj 48 384 comport/comport;
#X obj 51 132 file glob;
#X msg 74 79 symbol /dev/serial/by-id/*M5stack*;
#X msg 107 218 devicename \$1;
#X obj 127 5 loadbang;
#X obj 82 53 v baudrate;
#X msg 82 28 115200;
#X msg 88 269 baud \$1;
#X obj 89 241 expr baudrate;
#X obj 48 415 sel 10 13;
#X obj 109 471 list store;
#X obj 48 442 t b b;
#X msg 108 443 append \$1;
#X obj 109 496 fudiparse;
#X obj 52 157 t a b b a b;
#X msg 126 191 close;
#X obj 50 3 t b b;
#X text 333 78 /dev/serial/by-id/*M5stack*;
#X obj 51 103 symbol \$1;
#X obj 7 288 inlet, f 7;
#X obj 20 557 outlet;
#X obj 7 318 route reset;
#X obj 7 347 t b;
#X connect 0 0 9 0;
#X connect 1 0 14 0;
#X connect 2 0 18 0;
#X connect 3 0 0 0;
#X connect 4 0 16 0;
#X connect 6 0 5 0;
#X connect 7 0 0 0;
#X connect 8 0 7 0;
#X connect 9 0 11 0;
#X connect 9 2 12 0;
#X connect 10 0 13 0;
#X connect 11 0 10 1;
#X connect 11 1 10 0;
#X connect 12 0 10 0;
#X connect 13 0 20 0;
#X connect 14 2 8 0;
#X connect 14 3 3 0;
#X connect 14 4 15 0;
#X connect 15 0 0 0;
#X connect 16 0 18 0;
#X connect 16 1 6 0;
#X connect 18 0 1 0;
#X connect 19 0 21 0;
#X connect 21 0 22 0;
#X connect 21 1 0 0;
#X connect 22 0 16 0;
