#N canvas 288 267 885 587 12;
#N canvas 116 343 547 420 init 0;
#X obj 91 18 loadbang;
#X obj 45 17 inlet;
#X obj 47 179 route bang;
#X obj 44 53 t b b b, f 30;
#X obj 45 208 send name_\$0_r;
#X obj 47 153 symbol \$1;
#X obj 178 175 route bang;
#X obj 176 204 send size_\$0_r;
#X obj 178 149 i \$2;
#X obj 178 255 r size_\$0_s;
#X obj 173 307 send \$1;
#X msg 175 281 resize \$1;
#X obj 305 176 route bang;
#X obj 305 150 i \$3;
#X obj 303 205 send max_\$0_r;
#X connect 0 0 3 0;
#X connect 1 0 3 0;
#X connect 2 1 4 0;
#X connect 3 0 5 0;
#X connect 3 1 8 0;
#X connect 5 0 2 0;
#X connect 6 1 7 0;
#X connect 8 0 6 0;
#X connect 9 0 11 0;
#X connect 11 0 10 0;
#X connect 12 1 14 0;
#X connect 13 0 12 0;
#X restore 382 49 pd init;
#X obj 382 32 bng 15 250 50 0 empty empty empty 17 7 0 10 #fcfcfc #000000 #000000;
#N canvas 465 494 852 300 settings 0;
#X obj 28 -1 inlet;
#X obj 138 136 makefilename %s_\$0_r;
#X obj 103 82 list split 1;
#X obj 103 136 list;
#X obj 103 107 t b a;
#X obj 103 164 send;
#X obj 27 53 route input;
#X obj 29 138 unpack;
#X obj 30 238 expr \$1[$f1]=$f2;
#X obj 169 4 hsl 128 15 0 127 0 0 empty empty empty -2 -8 0 10 #fcfcfc #000000 #000000 0 1;
#X obj 28 23 list trim;
#X msg 156 28 input 0 \$1;
#X obj 69 196 m_scale \$3 \$4 0 1;
#X connect 0 0 10 0;
#X connect 1 0 5 1;
#X connect 2 0 4 0;
#X connect 2 1 3 1;
#X connect 3 0 5 0;
#X connect 4 0 3 0;
#X connect 4 1 1 0;
#X connect 6 0 7 0;
#X connect 6 1 2 0;
#X connect 7 0 8 0;
#X connect 7 1 12 0;
#X connect 9 0 11 0;
#X connect 10 0 6 0;
#X connect 11 0 6 0;
#X connect 12 0 8 1;
#X restore 440 51 pd settings;
#X obj 440 28 inlet;
#X listbox 37 183 9 0 0 0 name name_\$0_r name_\$0_s 0;
#X obj 95 258 v i\$0;
#X obj 22 234 tgl 15 0 empty empty empty 17 7 0 10 #fcfcfc #000000 #000000 0 1;
#X obj 22 439 route -1;
#X obj 22 207 loadbang;
#N canvas 449 430 450 278 (subpatch) 0;
#X array \$1 1 float 2;
#X coords 0 1 1 0 299 141 1 0 0;
#X restore 1 15 graph;
#X floatatom 261 189 5 0 0 0 size size_\$0_r size_\$0_s 0;
#X obj 109 607 outlet;
#X obj 338 214 array define -yrange 0 1 \$1_old \$2;
#X obj 74 470 expr $f1 \; \$1[$f1] \;;
#X obj 23 335 expr \$1_old[i\$0]=\$1[i\$0] \; if (\$1[i\$0]!= \$1_old[i\$0] \, i\$0 \, -1) \; if (\$1[i\$0]<0.0 \, \$1[i\$0]=0 \, 0) \; if (\$1[i\$0]>1.0 \, \$1[i\$0]=1 \, 0) \; if(i\$0 > \$2 \, i\$0 =0 \, 0) \; i\$0=i\$0+1 \;;
#X obj 74 552 list;
#X obj 74 514 makefilename \$1_%i;
#X listbox 3 159 40 0 0 0 - out_\$1_\$0_r - 0;
#X obj 76 638 send out_\$1_\$0_r;
#X obj 76 579 t a a;
#X obj 22 308 until;
#X msg 181 251;
#X floatatom 163 216 5 0 0 0 - - - 0;
#X obj 22 280 array size \$1;
#X obj 22 258 metro 50;
#X obj 133 552 m_scale 0 1 \$3 \$4;
#X connect 1 0 0 0;
#X connect 3 0 2 0;
#X connect 6 0 24 0;
#X connect 7 1 13 0;
#X connect 8 0 6 0;
#X connect 13 0 16 0;
#X connect 13 1 25 0;
#X connect 14 1 7 0;
#X connect 15 0 19 0;
#X connect 16 0 15 0;
#X connect 19 0 18 0;
#X connect 19 1 11 0;
#X connect 20 0 14 0;
#X connect 23 0 20 0;
#X connect 24 0 23 0;
#X connect 25 0 15 1;
#X coords 0 -1 1 1 300 180 1 0 0;
