#N canvas 475 46 965 825 12;
#X text 570 408 output next line;
#X obj 72 117 inlet;
#X obj 74 401 outlet;
#X obj 75 374 t a a;
#X obj 135 376 spigot;
#X obj 189 379 tgl 15 0 empty empty empty 17 7 0 10 #fcfcfc #000000
#000000 0 1;
#X text 250 118 arguments \; \$1 text define mapping;
#X obj 74 175 list split 1;
#X obj 76 260 list;
#X obj 76 293 fn_scale;
#X obj 76 317 fn_rename;
#X obj 76 341 fn_send;
#X obj 75 213 list_search_all \$1 0;
#X obj 75 237 text get \$1;
#X obj 135 400 print debug:fn_getmap;
#X connect 1 0 7 0;
#X connect 3 0 2 0;
#X connect 3 1 4 0;
#X connect 4 0 14 0;
#X connect 5 0 4 1;
#X connect 7 0 12 0;
#X connect 7 1 8 1;
#X connect 8 0 9 0;
#X connect 9 0 10 0;
#X connect 10 0 11 0;
#X connect 11 0 3 0;
#X connect 12 0 13 0;
#X connect 13 0 8 0;
