#N canvas 358 47 772 825 12;
#X text 753 312 output next line;
#X obj 106 25 inlet;
#X obj 93 454 outlet;
#X obj 94 427 t a a;
#X obj 154 429 spigot;
#X obj 208 432 tgl 15 0 empty empty empty 17 7 0 10 #fcfcfc #000000
#000000 0 1;
#X text 492 197 arguments \; \$1 text define mapping;
#X obj 283 87 text define -k string_to_match_\$0;
#A set rename \;;
#X obj 98 206 text get string_to_match_\$0;
#X msg 98 178 0;
#X obj 180 121 text define incomming_\$0;
#X msg 180 97 clear;
#X obj 162 146 text insert incomming_\$0;
#X obj 99 237 text search incomming_\$0 1;
#X obj 99 261 sel -1 0;
#X obj 106 71 t a a a a b;
#X obj 172 276 t a a;
#X obj 97 312 list;
#X obj 140 312 list;
#X msg 209 43 list /evenement send elsewhere 14;
#X msg 187 18 list /evenement rename /hello send elsewhere 12;
#X obj 141 339 list split 2;
#X obj 97 390 t a;
#X obj 154 453 print debug:fn_rename;
#X connect 1 0 15 0;
#X connect 3 0 2 0;
#X connect 3 1 4 0;
#X connect 4 0 23 0;
#X connect 5 0 4 1;
#X connect 8 0 13 0;
#X connect 9 0 8 0;
#X connect 11 0 10 0;
#X connect 13 0 14 0;
#X connect 14 0 17 0;
#X connect 14 1 18 0;
#X connect 15 1 9 0;
#X connect 15 2 16 0;
#X connect 15 3 12 0;
#X connect 15 4 11 0;
#X connect 16 0 17 1;
#X connect 16 1 18 1;
#X connect 17 0 22 0;
#X connect 18 0 21 0;
#X connect 19 0 15 0;
#X connect 20 0 15 0;
#X connect 21 1 22 0;
#X connect 22 0 3 0;
