#N canvas 300 47 772 825 12;
#X text 753 312 output next line;
#X obj 106 25 inlet;
#X obj 113 582 outlet;
#X obj 114 555 t a a;
#X obj 174 557 spigot;
#X obj 228 560 tgl 15 0 empty empty empty 17 7 0 10 #fcfcfc #000000 #000000 0 1;
#X text 492 197 arguments \; \$1 text define mapping;
#X obj 283 87 text define -k string_to_match_\$0;
#A set send \;;
#X obj 118 206 text get string_to_match_\$0;
#X msg 118 178 0;
#X obj 180 121 text define incomming_\$0;
#X msg 180 97 clear;
#X obj 162 146 text insert incomming_\$0;
#X obj 119 237 text search incomming_\$0 1;
#X obj 119 261 sel -1 0;
#X obj 106 71 t a a a a b;
#X obj 192 276 t a a;
#X obj 117 312 list;
#X obj 160 312 list;
#X msg 187 18 list /evenement rename /hello send elsewhere 12;
#X obj 117 500 t a;
#X obj 155 434 list;
#X obj 158 341 list split 1;
#X obj 200 366 list split 1;
#X obj 241 421 list split 1;
#X listbox 266 494 20 0 0 0 - - - 0;
#X obj 187 489 send;
#X obj 155 458 t a a;
#X obj 174 581 print debug:fn_send;
#X msg 209 43 list /evenement send destination_1 14;
#X connect 1 0 15 0;
#X connect 3 0 2 0;
#X connect 3 1 4 0;
#X connect 4 0 28 0;
#X connect 5 0 4 1;
#X connect 8 0 13 0;
#X connect 9 0 8 0;
#X connect 11 0 10 0;
#X connect 13 0 14 0;
#X connect 14 0 17 0;
#X connect 14 1 18 0;
#X connect 15 1 9 0;
#X connect 15 2 16 0;
#X connect 15 3 12 0;
#X connect 15 4 11 0;
#X connect 16 0 17 1;
#X connect 16 1 18 1;
#X connect 17 0 20 0;
#X connect 18 0 22 0;
#X connect 19 0 15 0;
#X connect 20 0 3 0;
#X connect 21 0 27 0;
#X connect 22 0 21 0;
#X connect 22 1 23 0;
#X connect 23 1 24 0;
#X connect 24 0 25 0;
#X connect 24 0 26 1;
#X connect 24 1 21 1;
#X connect 27 0 20 0;
#X connect 27 1 26 0;
#X connect 29 0 15 0;
