#N canvas 415 47 965 825 12;
#X text 709 389 output next line;
#X obj 62 102 inlet;
#X obj 60 497 outlet;
#X obj 61 470 t a a;
#X obj 121 472 spigot;
#X obj 175 475 tgl 15 0 empty empty empty 17 7 0 10 #fcfcfc #000000 #000000 0 1;
#X text 448 274 arguments \; \$1 text define mapping;
#X obj 239 164 text define -k string_to_match_\$0;
#A set scale \;;
#X obj 61 286 text get string_to_match_\$0;
#X msg 61 258 0;
#X obj 136 198 text define incomming_\$0;
#X msg 136 174 clear;
#X obj 118 223 text insert incomming_\$0;
#X obj 62 317 text search incomming_\$0 1;
#X obj 62 341 sel -1 0;
#X obj 135 341 t a a;
#X obj 62 380 list;
#X obj 141 374 list;
#X msg 190 137 list /evenement send elsewhere 14;
#X obj 121 496 print debug:fn_scale;
#N canvas 159 140 804 562 scaler 0;
#X obj 49 64 inlet;
#X obj 61 99 list split 1;
#X obj 61 154 list;
#X obj 102 127 list split 5;
#X obj 149 160 list split 1;
#X obj 62 190 t a a;
#X obj 94 215 list length;
#X obj 94 241 - 1;
#X obj 61 270 list split;
#X obj 188 202 list split 1;
#X obj 228 231 list split 1;
#X obj 267 258 list split 1;
#X obj 307 287 list split 1;
#X obj 61 376 list;
#X obj 97 300 t a b;
#X obj 61 404 outlet;
#X obj 97 345 m_scale, f 17;
#X connect 0 0 1 0;
#X connect 1 0 2 0;
#X connect 1 1 3 0;
#X connect 2 0 5 0;
#X connect 3 0 4 0;
#X connect 3 1 2 1;
#X connect 4 1 9 0;
#X connect 5 0 8 0;
#X connect 5 1 6 0;
#X connect 6 0 7 0;
#X connect 7 0 8 1;
#X connect 8 0 13 0;
#X connect 8 1 14 0;
#X connect 9 0 16 1;
#X connect 9 1 10 0;
#X connect 10 0 16 2;
#X connect 10 1 11 0;
#X connect 11 0 16 3;
#X connect 11 1 12 0;
#X connect 12 0 16 4;
#X connect 13 0 15 0;
#X connect 14 0 16 0;
#X connect 16 0 13 1;
#X restore 141 406 pd scaler;
#X obj 62 231 t b a;
#X obj 62 148 t a a b;
#X msg 143 95 list /evenement scale 0 127 0 1 rename /other send elsewhere 12, f 74;
#X connect 1 0 22 0;
#X connect 3 0 2 0;
#X connect 3 1 4 0;
#X connect 4 0 19 0;
#X connect 5 0 4 1;
#X connect 8 0 13 0;
#X connect 9 0 8 0;
#X connect 11 0 10 0;
#X connect 13 0 14 0;
#X connect 14 0 16 0;
#X connect 14 1 17 0;
#X connect 15 0 16 1;
#X connect 15 1 17 1;
#X connect 16 0 3 0;
#X connect 17 0 20 0;
#X connect 18 0 22 0;
#X connect 20 0 3 0;
#X connect 21 0 9 0;
#X connect 21 1 15 0;
#X connect 22 0 21 0;
#X connect 22 1 12 0;
#X connect 22 2 11 0;
#X connect 23 0 22 0;
