#N canvas 306 151 772 627 12;
#X obj 287 162 text define match_\$0;
#X obj 106 305 text sequence \$1;
#X obj 106 116 text size \$1;
#X msg 151 277 line 0;
#X obj 106 173 until;
#X msg 106 278 step;
#X text 502 249 output next line;
#X obj 106 25 inlet;
#X text 478 31 input : string to match \; output : indexes of matching
;
#X obj 152 174 t b b;
#X obj 106 140 t a b;
#X obj 106 224 expr i\$0=i\$0+1;
#X obj 218 223 v i\$0;
#X obj 152 198 expr i\$0=0;
#X obj 107 90 t b a;
#X msg 287 137 clear;
#X obj 255 113 t a b;
#X obj 256 185 text insert match_\$0;
#X obj 106 63 list;
#X msg 183 41 /evenement;
#X obj 182 16 bng 15 250 50 0 empty empty empty 17 7 0 10 #fcfcfc #000000
#000000;
#X msg 332 407 clear;
#X obj 300 383 t a b;
#X obj 332 432 text define input_\$0;
#X obj 301 455 text insert input_\$0;
#X obj 108 419 text search match_\$0 \$2;
#X obj 107 524 outlet;
#X obj 108 391 text get input_\$0 \$2;
#X msg 107 364 0;
#X obj 107 338 t b a;
#X obj 108 443 sel 0;
#X obj 108 497 t a a;
#X obj 168 499 spigot;
#X obj 222 502 tgl 15 0 empty empty empty 17 7 0 10 #fcfcfc #000000
#000000 0 1;
#X obj 168 523 print debug:list_search_all \$1 \$2;
#X text 473 73 argument \; \$1 = [symbol] text to search \; \$2 = [int]
field to match \;;
#X obj 106 248 t b;
#X obj 108 469 expr i\$0-1;
#X msg 210 10 /no;
#X connect 1 0 29 0;
#X connect 2 0 10 0;
#X connect 3 0 1 0;
#X connect 4 0 11 0;
#X connect 5 0 1 0;
#X connect 7 0 18 0;
#X connect 9 0 13 0;
#X connect 9 1 3 0;
#X connect 10 0 4 0;
#X connect 10 1 9 0;
#X connect 11 0 36 0;
#X connect 14 0 2 0;
#X connect 14 1 16 0;
#X connect 15 0 0 0;
#X connect 16 0 17 0;
#X connect 16 1 15 0;
#X connect 18 0 14 0;
#X connect 19 0 18 0;
#X connect 20 0 19 0;
#X connect 21 0 23 0;
#X connect 22 0 24 0;
#X connect 22 1 21 0;
#X connect 25 0 30 0;
#X connect 27 0 25 0;
#X connect 28 0 27 0;
#X connect 29 0 28 0;
#X connect 29 1 22 0;
#X connect 30 0 37 0;
#X connect 31 0 26 0;
#X connect 31 1 32 0;
#X connect 32 0 34 0;
#X connect 33 0 32 1;
#X connect 36 0 5 0;
#X connect 37 0 31 0;
#X connect 38 0 18 0;
