#N canvas 638 288 693 197 12;
#X obj 40 12 inlet;
#X obj 40 145 outlet;
#X floatatom 266 48 5 0 0 0 port port_\$0_r port_\$0_s 0;
#X listbox 264 24 11 0 0 0 ip ip_\$0_r ip_\$0_s 0;
#N canvas 295 320 450 300 init 0;
#X obj 91 18 loadbang;
#X obj 44 78 symbol \$1;
#X obj 148 78 i \$2;
#X obj 44 105 route bang;
#X obj 148 104 route bang;
#X obj 41 138 send ip_\$0_r;
#X obj 139 137 send port_\$0_r;
#X obj 45 17 inlet;
#X obj 263 103 route bang;
#X obj 44 53 t b b b, f 30;
#X obj 263 77 symbol \$3;
#X obj 261 132 send name_\$0_r;
#X connect 0 0 9 0;
#X connect 1 0 3 0;
#X connect 2 0 4 0;
#X connect 3 1 5 0;
#X connect 4 1 6 0;
#X connect 7 0 9 0;
#X connect 8 1 11 0;
#X connect 9 0 1 0;
#X connect 9 1 2 0;
#X connect 9 2 10 0;
#X connect 10 0 8 0;
#X restore 382 49 pd init;
#N canvas 680 514 450 300 process 0;
#X obj 29 13 inlet;
#X obj 25 314 outlet;
#X obj 55 221 netsend -u -b;
#N canvas 650 467 597 300 connect 0;
#X obj 43 250 outlet;
#X obj 44 22 r ip_\$0_s;
#X obj 105 45 r port_\$0_s;
#X obj 43 151 list prepend connect;
#X obj 43 176 list trim;
#X obj 105 69 t b a;
#X obj 43 125 list;
#X obj 43 95 symbol;
#X obj 43 200 t a b;
#X msg 73 225 disconnect;
#X connect 1 0 7 0;
#X connect 2 0 5 0;
#X connect 3 0 4 0;
#X connect 4 0 8 0;
#X connect 5 0 7 0;
#X connect 5 1 6 1;
#X connect 6 0 3 0;
#X connect 7 0 6 0;
#X connect 8 0 0 0;
#X connect 8 1 9 0;
#X connect 9 0 0 0;
#X restore 81 191 pd connect;
#X obj 24 189 t a a;
#X obj 95 267 tgl 15 0 empty empty empty 17 7 0 10 #fcfcfc #000000
#000000 0 1;
#X obj 25 291 oscparse;
#X obj 29 38 list split 1;
#X obj 29 63 t b a;
#X obj 24 149 oscformat;
#X obj 101 90 list prepend set;
#X obj 101 114 list trim;
#X obj 24 89 list;
#X obj 24 113 list trim;
#X obj 25 265 spigot 1;
#X connect 0 0 7 0;
#X connect 3 0 2 0;
#X connect 4 0 14 0;
#X connect 4 1 2 0;
#X connect 5 0 14 1;
#X connect 6 0 1 0;
#X connect 7 0 8 0;
#X connect 7 1 12 1;
#X connect 8 0 12 0;
#X connect 8 1 10 0;
#X connect 9 0 4 0;
#X connect 10 0 11 0;
#X connect 11 0 9 0;
#X connect 12 0 13 0;
#X connect 13 0 9 0;
#X connect 14 0 6 0;
#X restore 41 108 pd process;
#X obj 382 32 bng 15 250 50 0 empty empty empty 17 7 0 10 #fcfcfc #000000
#000000;
#N canvas 697 525 450 300 settings 0;
#X obj 27 17 inlet;
#X obj 60 156 makefilename %s_\$0_r;
#X obj 27 86 list split 1;
#X obj 25 156 list;
#X obj 28 124 t b a;
#X obj 25 184 send;
#X msg 80 13 ip 127.0.0.1;
#X msg 111 43 port 1234;
#X connect 0 0 2 0;
#X connect 1 0 5 1;
#X connect 2 0 4 0;
#X connect 2 1 3 1;
#X connect 3 0 5 0;
#X connect 4 0 3 0;
#X connect 4 1 1 0;
#X connect 6 0 2 0;
#X connect 7 0 2 0;
#X restore 440 51 pd settings;
#X obj 440 28 inlet;
#X listbox 263 71 11 0 0 0 name name_\$0_r name_\$0_s 0;
#X obj 54 36 r \$3;
#X listbox 66 83 20 0 0 0 - - - 0;
#X connect 0 0 5 0;
#X connect 5 0 1 0;
#X connect 6 0 4 0;
#X connect 8 0 7 0;
#X connect 10 0 5 0;
#X connect 10 0 11 0;
