#N canvas 483 201 552 599 12;
#X obj 32 124 netreceive -u -b;
#X obj 32 21 loadbang;
#X msg 111 95 listen 0;
#X obj 32 148 oscparse;
#X obj 32 170 list trim;
#X obj 32 193 route tof;
#X floatatom 94 267 5 0 0 0 - - - 0;
#X floatatom 95 293 5 0 0 0 - - - 0;
#X obj 94 242 route 1;
#X obj 32 239 route 1;
#X floatatom 183 219 5 0 0 0 ID - - 0;
#X obj 32 261 sel 255;
#X obj 32 285 bng 15 250 50 0 empty empty absence 17 7 0 10 #fcfcfc #000000 #000000;
#X obj 98 337 hsl 128 15 0 127 0 0 empty empty empty -2 -8 0 10 #fcfcfc #000000 #000000 0 1;
#X obj 95 315 expr (255-$f1)/2;
#X obj 32 216 route scaled raw;
#X obj 178 368 ctlout;
#X floatatom 98 414 11 0 0 0 m5-duino - m5-duino 0;
#X msg 32 93 listen \$1;
#X obj 149 22 bng 15 250 50 0 empty empty empty 17 7 0 10 #fcfcfc #000000 #000000;
#X obj 30 70 int \$1;
#X obj 200 160 i \$2;
#X obj 185 187 sel 0;
#X obj 205 440 outlet;
#X obj 35 44 t b b b b, f 34;
#X obj 95 368 / 2;
#X floatatom 278 221 5 0 0 0 rename - - 0;
#X obj 279 189 sel 0;
#X obj 214 404 list prepend;
#X obj 278 156 int \$3;
#X connect 0 0 3 0;
#X connect 1 0 24 0;
#X connect 2 0 0 0;
#X connect 3 0 4 0;
#X connect 4 0 5 0;
#X connect 5 0 15 0;
#X connect 7 0 14 0;
#X connect 8 0 6 0;
#X connect 9 0 11 0;
#X connect 10 0 8 1;
#X connect 10 0 9 1;
#X connect 11 0 12 0;
#X connect 11 1 7 0;
#X connect 13 0 16 0;
#X connect 13 0 25 0;
#X connect 14 0 13 0;
#X connect 15 0 9 0;
#X connect 15 1 8 0;
#X connect 18 0 0 0;
#X connect 19 0 24 0;
#X connect 20 0 18 0;
#X connect 21 0 22 0;
#X connect 22 1 10 0;
#X connect 24 0 20 0;
#X connect 24 1 2 0;
#X connect 24 2 21 0;
#X connect 24 3 29 0;
#X connect 25 0 17 0;
#X connect 25 0 28 0;
#X connect 26 0 28 1;
#X connect 27 1 26 0;
#X connect 28 0 23 0;
#X connect 29 0 27 0;
